<?xml version="1.0" encoding="UTF-8" standalone="no"?>
<!DOCTYPE svg PUBLIC "-//W3C//DTD SVG 1.1//EN"
 "http://www.w3.org/Graphics/SVG/1.1/DTD/svg11.dtd">
<!-- Generated by graphviz version 2.43.0 (0)
 -->
<!-- Title: %3 Pages: 1 -->
<svg width="808pt" height="637pt"
 viewBox="0.00 0.00 808.00 637.00" xmlns="http://www.w3.org/2000/svg" xmlns:xlink="http://www.w3.org/1999/xlink">
<g id="graph0" class="graph" transform="scale(1 1) rotate(0) translate(4 633)">
<title>%3</title>
<polygon fill="#ffffff" stroke="transparent" points="-4,4 -4,-633 804,-633 804,4 -4,4"/>
<!-- PC -->
<g id="node1" class="node">
<title>PC</title>
<polygon fill="#ffffff" stroke="black" points="136,-622 0,-622 0,-369 136,-369 136,-622"/>
<polygon fill="none" stroke="black" points="0,-598.5 0,-621.5 136,-621.5 136,-598.5 0,-598.5"/>
<text text-anchor="start" x="58.5" y="-606.3" font-family="arial" font-size="14.00">PC</text>
<polygon fill="none" stroke="black" points="0,-575.5 0,-598.5 47,-598.5 47,-575.5 0,-575.5"/>
<text text-anchor="start" x="4" y="-583.3" font-family="arial" font-size="14.00">D&#45;Sub</text>
<polygon fill="none" stroke="black" points="47,-575.5 47,-598.5 97,-598.5 97,-575.5 47,-575.5"/>
<text text-anchor="start" x="51" y="-583.3" font-family="arial" font-size="14.00">female</text>
<polygon fill="none" stroke="black" points="97,-575.5 97,-598.5 136,-598.5 136,-575.5 97,-575.5"/>
<text text-anchor="start" x="101" y="-583.3" font-family="arial" font-size="14.00">9&#45;pin</text>
<polygon fill="none" stroke="black" points="0,-552.5 0,-575.5 80,-575.5 80,-552.5 0,-552.5"/>
<text text-anchor="start" x="25" y="-560.3" font-family="arial" font-size="14.00">DCD</text>
<polygon fill="none" stroke="black" points="80,-552.5 80,-575.5 136,-575.5 136,-552.5 80,-552.5"/>
<text text-anchor="start" x="104" y="-560.3" font-family="arial" font-size="14.00">1</text>
<polygon fill="none" stroke="black" points="0,-529.5 0,-552.5 80,-552.5 80,-529.5 0,-529.5"/>
<text text-anchor="start" x="30" y="-537.3" font-family="arial" font-size="14.00">RD</text>
<polygon fill="none" stroke="black" points="80,-529.5 80,-552.5 136,-552.5 136,-529.5 80,-529.5"/>
<text text-anchor="start" x="104" y="-537.3" font-family="arial" font-size="14.00">2</text>
<polygon fill="none" stroke="black" points="0,-506.5 0,-529.5 80,-529.5 80,-506.5 0,-506.5"/>
<text text-anchor="start" x="30.5" y="-514.3" font-family="arial" font-size="14.00">TD</text>
<polygon fill="none" stroke="black" points="80,-506.5 80,-529.5 136,-529.5 136,-506.5 80,-506.5"/>
<text text-anchor="start" x="104" y="-514.3" font-family="arial" font-size="14.00">3</text>
<polygon fill="none" stroke="black" points="0,-483.5 0,-506.5 80,-506.5 80,-483.5 0,-483.5"/>
<text text-anchor="start" x="26" y="-491.3" font-family="arial" font-size="14.00">DTR</text>
<polygon fill="none" stroke="black" points="80,-483.5 80,-506.5 136,-506.5 136,-483.5 80,-483.5"/>
<text text-anchor="start" x="104" y="-491.3" font-family="arial" font-size="14.00">4</text>
<polygon fill="none" stroke="black" points="0,-460.5 0,-483.5 80,-483.5 80,-460.5 0,-460.5"/>
<text text-anchor="start" x="24.5" y="-468.3" font-family="arial" font-size="14.00">GND</text>
<polygon fill="none" stroke="black" points="80,-460.5 80,-483.5 136,-483.5 136,-460.5 80,-460.5"/>
<text text-anchor="start" x="104" y="-468.3" font-family="arial" font-size="14.00">5</text>
<polygon fill="none" stroke="black" points="0,-437.5 0,-460.5 80,-460.5 80,-437.5 0,-437.5"/>
<text text-anchor="start" x="25.5" y="-445.3" font-family="arial" font-size="14.00">DSR</text>
<polygon fill="none" stroke="black" points="80,-437.5 80,-460.5 136,-460.5 136,-437.5 80,-437.5"/>
<text text-anchor="start" x="104" y="-445.3" font-family="arial" font-size="14.00">6</text>
<polygon fill="none" stroke="black" points="0,-414.5 0,-437.5 80,-437.5 80,-414.5 0,-414.5"/>
<text text-anchor="start" x="26" y="-422.3" font-family="arial" font-size="14.00">RTS</text>
<polygon fill="none" stroke="black" points="80,-414.5 80,-437.5 136,-437.5 136,-414.5 80,-414.5"/>
<text text-anchor="start" x="104" y="-422.3" font-family="arial" font-size="14.00">7</text>
<polygon fill="none" stroke="black" points="0,-391.5 0,-414.5 80,-414.5 80,-391.5 0,-391.5"/>
<text text-anchor="start" x="26" y="-399.3" font-family="arial" font-size="14.00">CTS</text>
<polygon fill="none" stroke="black" points="80,-391.5 80,-414.5 136,-414.5 136,-391.5 80,-391.5"/>
<text text-anchor="start" x="104" y="-399.3" font-family="arial" font-size="14.00">8</text>
<polygon fill="none" stroke="black" points="0,-368.5 0,-391.5 80,-391.5 80,-368.5 0,-368.5"/>
<text text-anchor="start" x="33" y="-376.3" font-family="arial" font-size="14.00">RI</text>
<polygon fill="none" stroke="black" points="80,-368.5 80,-391.5 136,-391.5 136,-368.5 80,-368.5"/>
<text text-anchor="start" x="104" y="-376.3" font-family="arial" font-size="14.00">9</text>
</g>
<!-- Cable -->
<g id="node3" class="node">
<title>Cable</title>
<polygon fill="#ffffff" stroke="black" points="524,-629 280,-629 280,-420 524,-420 524,-629"/>
<polygon fill="none" stroke="black" points="280,-605.5 280,-628.5 524,-628.5 524,-605.5 280,-605.5"/>
<text text-anchor="start" x="384" y="-613.3" font-family="arial" font-size="14.00">Cable</text>
<polygon fill="none" stroke="black" points="280,-582.5 280,-605.5 392,-605.5 392,-582.5 280,-582.5"/>
<text text-anchor="start" x="328.5" y="-590.3" font-family="arial" font-size="14.00">5x</text>
<polygon fill="none" stroke="black" points="392,-582.5 392,-605.5 524,-605.5 524,-582.5 392,-582.5"/>
<text text-anchor="start" x="440.5" y="-590.3" font-family="arial" font-size="14.00">1.5 m</text>
<text text-anchor="start" x="312.5" y="-569.3" font-family="arial" font-size="14.00"> </text>
<text text-anchor="start" x="287.5" y="-550.3" font-family="arial" font-size="14.00">PC:2:RD</text>
<text text-anchor="start" x="352.5" y="-550.3" font-family="arial" font-size="14.00"> &#160;&#160;&#160;&#160;1:YE &#160;&#160;&#160;</text>
<text text-anchor="start" x="430.5" y="-550.3" font-family="arial" font-size="14.00">Lambda:2:TD</text>
<polygon fill="#000000" stroke="transparent" points="280,-542.5 280,-544.5 524,-544.5 524,-542.5 280,-542.5"/>
<polygon fill="#ffff00" stroke="transparent" points="280,-540.5 280,-542.5 524,-542.5 524,-540.5 280,-540.5"/>
<polygon fill="#000000" stroke="transparent" points="280,-538.5 280,-540.5 524,-540.5 524,-538.5 280,-538.5"/>
<text text-anchor="start" x="288.5" y="-525.3" font-family="arial" font-size="14.00">PC:3:TD</text>
<text text-anchor="start" x="351" y="-525.3" font-family="arial" font-size="14.00"> &#160;&#160;&#160;&#160;2:GN &#160;&#160;&#160;</text>
<text text-anchor="start" x="429.5" y="-525.3" font-family="arial" font-size="14.00">Lambda:3:RD</text>
<polygon fill="#000000" stroke="transparent" points="280,-517.5 280,-519.5 524,-519.5 524,-517.5 280,-517.5"/>
<polygon fill="#00ff00" stroke="transparent" points="280,-515.5 280,-517.5 524,-517.5 524,-515.5 280,-515.5"/>
<polygon fill="#000000" stroke="transparent" points="280,-513.5 280,-515.5 524,-515.5 524,-513.5 280,-513.5"/>
<text text-anchor="start" x="282" y="-500.3" font-family="arial" font-size="14.00">PC:5:GND</text>
<text text-anchor="start" x="352.5" y="-500.3" font-family="arial" font-size="14.00"> &#160;&#160;&#160;&#160;3:BN &#160;&#160;&#160;</text>
<text text-anchor="start" x="424" y="-500.3" font-family="arial" font-size="14.00">Lambda:7:GND</text>
<polygon fill="#000000" stroke="transparent" points="280,-492.5 280,-494.5 524,-494.5 524,-492.5 280,-492.5"/>
<polygon fill="#895956" stroke="transparent" points="280,-490.5 280,-492.5 524,-492.5 524,-490.5 280,-490.5"/>
<polygon fill="#000000" stroke="transparent" points="280,-488.5 280,-490.5 524,-490.5 524,-488.5 280,-488.5"/>
<text text-anchor="start" x="283" y="-475.3" font-family="arial" font-size="14.00">PC:6:DSR</text>
<text text-anchor="start" x="352.5" y="-475.3" font-family="arial" font-size="14.00"> &#160;&#160;&#160;&#160;4:BU &#160;&#160;&#160;</text>
<text text-anchor="start" x="422" y="-475.3" font-family="arial" font-size="14.00">Lambda:20:DTR</text>
<polygon fill="#000000" stroke="transparent" points="280,-467.5 280,-469.5 524,-469.5 524,-467.5 280,-467.5"/>
<polygon fill="#0066ff" stroke="transparent" points="280,-465.5 280,-467.5 524,-467.5 524,-465.5 280,-465.5"/>
<polygon fill="#000000" stroke="transparent" points="280,-463.5 280,-465.5 524,-465.5 524,-463.5 280,-463.5"/>
<text text-anchor="start" x="284" y="-450.3" font-family="arial" font-size="14.00">PC:8:CTS</text>
<text text-anchor="start" x="352.5" y="-450.3" font-family="arial" font-size="14.00"> &#160;&#160;&#160;&#160;5:PK &#160;&#160;&#160;</text>
<text text-anchor="start" x="426" y="-450.3" font-family="arial" font-size="14.00">Lambda:4:RTS</text>
<polygon fill="#000000" stroke="transparent" points="280,-442.5 280,-444.5 524,-444.5 524,-442.5 280,-442.5"/>
<polygon fill="#ff66cc" stroke="transparent" points="280,-440.5 280,-442.5 524,-442.5 524,-440.5 280,-440.5"/>
<polygon fill="#000000" stroke="transparent" points="280,-438.5 280,-440.5 524,-440.5 524,-438.5 280,-438.5"/>
<text text-anchor="start" x="312.5" y="-425.3" font-family="arial" font-size="14.00"> </text>
</g>
<!-- PC&#45;&#45;Cable -->
<g id="edge1" class="edge">
<title>PC:e&#45;&#45;Cable:w</title>
<path fill="none" stroke="#000000" stroke-width="2" d="M136,-539.5C200,-539.5 216,-539.5 280,-539.5"/>
<path fill="none" stroke="#ffff00" stroke-width="2" d="M136,-541.5C200,-541.5 216,-541.5 280,-541.5"/>
<path fill="none" stroke="#000000" stroke-width="2" d="M136,-543.5C200,-543.5 216,-543.5 280,-543.5"/>
</g>
<!-- PC&#45;&#45;Cable -->
<g id="edge3" class="edge">
<title>PC:e&#45;&#45;Cable:w</title>
<path fill="none" stroke="#000000" stroke-width="2" d="M136,-516.5C199.76,-516.52 215.75,-514.52 280,-514.5"/>
<path fill="none" stroke="#00ff00" stroke-width="2" d="M136,-518.5C200.01,-518.5 215.99,-516.5 280,-516.5"/>
<path fill="none" stroke="#000000" stroke-width="2" d="M136,-520.5C200.25,-520.48 216.24,-518.48 280,-518.5"/>
</g>
<!-- PC&#45;&#45;Cable -->
<g id="edge5" class="edge">
<title>PC:e&#45;&#45;Cable:w</title>
<path fill="none" stroke="#000000" stroke-width="2" d="M136,-469.5C202.22,-470.31 216.99,-490.31 280,-489.5"/>
<path fill="none" stroke="#895956" stroke-width="2" d="M136,-471.5C200.61,-471.5 215.39,-491.5 280,-491.5"/>
<path fill="none" stroke="#000000" stroke-width="2" d="M136,-473.5C199.01,-472.69 213.78,-492.69 280,-493.5"/>
</g>
<!-- PC&#45;&#45;Cable -->
<g id="edge7" class="edge">
<title>PC:e&#45;&#45;Cable:w</title>
<path fill="none" stroke="#000000" stroke-width="2" d="M136,-446.5C202.03,-447.22 217.04,-465.22 280,-464.5"/>
<path fill="none" stroke="#0066ff" stroke-width="2" d="M136,-448.5C200.5,-448.5 215.5,-466.5 280,-466.5"/>
<path fill="none" stroke="#000000" stroke-width="2" d="M136,-450.5C198.96,-449.78 213.97,-467.78 280,-468.5"/>
</g>
<!-- PC&#45;&#45;Cable -->
<g id="edge9" class="edge">
<title>PC:e&#45;&#45;Cable:w</title>
<path fill="none" stroke="#000000" stroke-width="2" d="M136,-400.5C204.23,-401.94 215.61,-440.94 280,-439.5"/>
<path fill="none" stroke="#ff66cc" stroke-width="2" d="M136,-402.5C202.31,-402.5 213.69,-441.5 280,-441.5"/>
<path fill="none" stroke="#000000" stroke-width="2" d="M136,-404.5C200.39,-403.06 211.77,-442.06 280,-443.5"/>
</g>
<!-- PC&#45;&#45;Cable -->
<g id="edge11" class="edge">
<title>PC:e&#45;&#45;Cable:w</title>
<path fill="none" stroke="#000000" stroke-width="2" d="M136,-562.5C218.21,-564.89 193.87,-441.89 280,-439.5"/>
<path fill="none" stroke="#ff66cc" stroke-width="2" d="M136,-564.5C220.17,-564.5 195.83,-441.5 280,-441.5"/>
<path fill="none" stroke="#000000" stroke-width="2" d="M136,-566.5C222.13,-564.11 197.79,-441.11 280,-443.5"/>
</g>
<!-- PC&#45;&#45;Cable -->
<g id="edge12" class="edge">
<title>PC:e&#45;&#45;Cable:w</title>
<path fill="none" stroke="#000000" stroke-width="2" d="M136,-492.5C202.22,-494.22 209.82,-441.22 280,-439.5"/>
<path fill="none" stroke="#ff66cc" stroke-width="2" d="M136,-494.5C204.2,-494.5 211.8,-441.5 280,-441.5"/>
<path fill="none" stroke="#000000" stroke-width="2" d="M136,-496.5C206.18,-494.78 213.78,-441.78 280,-443.5"/>
</g>
<!-- Lambda -->
<g id="node2" class="node">
<title>Lambda</title>
<polygon fill="#ffffff" stroke="black" points="800,-621 668,-621 668,0 800,0 800,-621"/>
<polygon fill="none" stroke="black" points="668,-597.5 668,-620.5 800,-620.5 800,-597.5 668,-597.5"/>
<text text-anchor="start" x="709" y="-605.3" font-family="arial" font-size="14.00">Lambda</text>
<polygon fill="none" stroke="black" points="668,-574.5 668,-597.5 715,-597.5 715,-574.5 668,-574.5"/>
<text text-anchor="start" x="672" y="-582.3" font-family="arial" font-size="14.00">D&#45;Sub</text>
<polygon fill="none" stroke="black" points="715,-574.5 715,-597.5 754,-597.5 754,-574.5 715,-574.5"/>
<text text-anchor="start" x="719" y="-582.3" font-family="arial" font-size="14.00">male</text>
<polygon fill="none" stroke="black" points="754,-574.5 754,-597.5 800,-597.5 800,-574.5 754,-574.5"/>
<text text-anchor="start" x="758" y="-582.3" font-family="arial" font-size="14.00">25&#45;pin</text>
<polygon fill="none" stroke="black" points="668,-551.5 668,-574.5 719,-574.5 719,-551.5 668,-551.5"/>
<text text-anchor="start" x="689.5" y="-559.3" font-family="arial" font-size="14.00">1</text>
<polygon fill="none" stroke="black" points="719,-551.5 719,-574.5 800,-574.5 800,-551.5 719,-551.5"/>
<text text-anchor="start" x="744" y="-559.3" font-family="arial" font-size="14.00">GND</text>
<polygon fill="none" stroke="black" points="668,-528.5 668,-551.5 719,-551.5 719,-528.5 668,-528.5"/>
<text text-anchor="start" x="689.5" y="-536.3" font-family="arial" font-size="14.00">2</text>
<polygon fill="none" stroke="black" points="719,-528.5 719,-551.5 800,-551.5 800,-528.5 719,-528.5"/>
<text text-anchor="start" x="750" y="-536.3" font-family="arial" font-size="14.00">TD</text>
<polygon fill="none" stroke="black" points="668,-505.5 668,-528.5 719,-528.5 719,-505.5 668,-505.5"/>
<text text-anchor="start" x="689.5" y="-513.3" font-family="arial" font-size="14.00">3</text>
<polygon fill="none" stroke="black" points="719,-505.5 719,-528.5 800,-528.5 800,-505.5 719,-505.5"/>
<text text-anchor="start" x="749.5" y="-513.3" font-family="arial" font-size="14.00">RD</text>
<polygon fill="none" stroke="black" points="668,-482.5 668,-505.5 719,-505.5 719,-482.5 668,-482.5"/>
<text text-anchor="start" x="689.5" y="-490.3" font-family="arial" font-size="14.00">4</text>
<polygon fill="none" stroke="black" points="719,-482.5 719,-505.5 800,-505.5 800,-482.5 719,-482.5"/>
<text text-anchor="start" x="745.5" y="-490.3" font-family="arial" font-size="14.00">RTS</text>
<polygon fill="none" stroke="black" points="668,-459.5 668,-482.5 719,-482.5 719,-459.5 668,-459.5"/>
<text text-anchor="start" x="689.5" y="-467.3" font-family="arial" font-size="14.00">5</text>
<polygon fill="none" stroke="black" points="719,-459.5 719,-482.5 800,-482.5 800,-459.5 719,-459.5"/>
<text text-anchor="start" x="745.5" y="-467.3" font-family="arial" font-size="14.00">CTS</text>
<polygon fill="none" stroke="black" points="668,-436.5 668,-459.5 719,-459.5 719,-436.5 668,-436.5"/>
<text text-anchor="start" x="689.5" y="-444.3" font-family="arial" font-size="14.00">6</text>
<polygon fill="none" stroke="black" points="719,-436.5 719,-459.5 800,-459.5 800,-436.5 719,-436.5"/>
<text text-anchor="start" x="745" y="-444.3" font-family="arial" font-size="14.00">DSR</text>
<polygon fill="none" stroke="black" points="668,-413.5 668,-436.5 719,-436.5 719,-413.5 668,-413.5"/>
<text text-anchor="start" x="689.5" y="-421.3" font-family="arial" font-size="14.00">7</text>
<polygon fill="none" stroke="black" points="719,-413.5 719,-436.5 800,-436.5 800,-413.5 719,-413.5"/>
<text text-anchor="start" x="744" y="-421.3" font-family="arial" font-size="14.00">GND</text>
<polygon fill="none" stroke="black" points="668,-390.5 668,-413.5 719,-413.5 719,-390.5 668,-390.5"/>
<text text-anchor="start" x="689.5" y="-398.3" font-family="arial" font-size="14.00">8</text>
<polygon fill="none" stroke="black" points="719,-390.5 719,-413.5 800,-413.5 800,-390.5 719,-390.5"/>
<text text-anchor="start" x="749.5" y="-398.3" font-family="arial" font-size="14.00">CD</text>
<polygon fill="none" stroke="black" points="668,-367.5 668,-390.5 719,-390.5 719,-367.5 668,-367.5"/>
<text text-anchor="start" x="689.5" y="-375.3" font-family="arial" font-size="14.00">9</text>
<polygon fill="none" stroke="black" points="719,-367.5 719,-390.5 800,-390.5 800,-367.5 719,-367.5"/>
<text text-anchor="start" x="747" y="-375.3" font-family="arial" font-size="14.00">void</text>
<polygon fill="none" stroke="black" points="668,-344.5 668,-367.5 719,-367.5 719,-344.5 668,-344.5"/>
<text text-anchor="start" x="685.5" y="-352.3" font-family="arial" font-size="14.00">10</text>
<polygon fill="none" stroke="black" points="719,-344.5 719,-367.5 800,-367.5 800,-344.5 719,-344.5"/>
<text text-anchor="start" x="747" y="-352.3" font-family="arial" font-size="14.00">void</text>
<polygon fill="none" stroke="black" points="668,-321.5 668,-344.5 719,-344.5 719,-321.5 668,-321.5"/>
<text text-anchor="start" x="685.5" y="-329.3" font-family="arial" font-size="14.00">11</text>
<polygon fill="none" stroke="black" points="719,-321.5 719,-344.5 800,-344.5 800,-321.5 719,-321.5"/>
<text text-anchor="start" x="747" y="-329.3" font-family="arial" font-size="14.00">void</text>
<polygon fill="none" stroke="black" points="668,-298.5 668,-321.5 719,-321.5 719,-298.5 668,-298.5"/>
<text text-anchor="start" x="685.5" y="-306.3" font-family="arial" font-size="14.00">12</text>
<polygon fill="none" stroke="black" points="719,-298.5 719,-321.5 800,-321.5 800,-298.5 719,-298.5"/>
<text text-anchor="start" x="747" y="-306.3" font-family="arial" font-size="14.00">void</text>
<polygon fill="none" stroke="black" points="668,-275.5 668,-298.5 719,-298.5 719,-275.5 668,-275.5"/>
<text text-anchor="start" x="685.5" y="-283.3" font-family="arial" font-size="14.00">13</text>
<polygon fill="none" stroke="black" points="719,-275.5 719,-298.5 800,-298.5 800,-275.5 719,-275.5"/>
<text text-anchor="start" x="747" y="-283.3" font-family="arial" font-size="14.00">void</text>
<polygon fill="none" stroke="black" points="668,-252.5 668,-275.5 719,-275.5 719,-252.5 668,-252.5"/>
<text text-anchor="start" x="685.5" y="-260.3" font-family="arial" font-size="14.00">14</text>
<polygon fill="none" stroke="black" points="719,-252.5 719,-275.5 800,-275.5 800,-252.5 719,-252.5"/>
<text text-anchor="start" x="747" y="-260.3" font-family="arial" font-size="14.00">void</text>
<polygon fill="none" stroke="black" points="668,-229.5 668,-252.5 719,-252.5 719,-229.5 668,-229.5"/>
<text text-anchor="start" x="685.5" y="-237.3" font-family="arial" font-size="14.00">15</text>
<polygon fill="none" stroke="black" points="719,-229.5 719,-252.5 800,-252.5 800,-229.5 719,-229.5"/>
<text text-anchor="start" x="736.5" y="-237.3" font-family="arial" font-size="14.00">RESET</text>
<polygon fill="none" stroke="black" points="668,-206.5 668,-229.5 719,-229.5 719,-206.5 668,-206.5"/>
<text text-anchor="start" x="685.5" y="-214.3" font-family="arial" font-size="14.00">16</text>
<polygon fill="none" stroke="black" points="719,-206.5 719,-229.5 800,-229.5 800,-206.5 719,-206.5"/>
<text text-anchor="start" x="747" y="-214.3" font-family="arial" font-size="14.00">void</text>
<polygon fill="none" stroke="black" points="668,-183.5 668,-206.5 719,-206.5 719,-183.5 668,-183.5"/>
<text text-anchor="start" x="685.5" y="-191.3" font-family="arial" font-size="14.00">17</text>
<polygon fill="none" stroke="black" points="719,-183.5 719,-206.5 800,-206.5 800,-183.5 719,-183.5"/>
<text text-anchor="start" x="747" y="-191.3" font-family="arial" font-size="14.00">void</text>
<polygon fill="none" stroke="black" points="668,-160.5 668,-183.5 719,-183.5 719,-160.5 668,-160.5"/>
<text text-anchor="start" x="685.5" y="-168.3" font-family="arial" font-size="14.00">18</text>
<polygon fill="none" stroke="black" points="719,-160.5 719,-183.5 800,-183.5 800,-160.5 719,-160.5"/>
<text text-anchor="start" x="747" y="-168.3" font-family="arial" font-size="14.00">void</text>
<polygon fill="none" stroke="black" points="668,-137.5 668,-160.5 719,-160.5 719,-137.5 668,-137.5"/>
<text text-anchor="start" x="685.5" y="-145.3" font-family="arial" font-size="14.00">19</text>
<polygon fill="none" stroke="black" points="719,-137.5 719,-160.5 800,-160.5 800,-137.5 719,-137.5"/>
<text text-anchor="start" x="747" y="-145.3" font-family="arial" font-size="14.00">void</text>
<polygon fill="none" stroke="black" points="668,-114.5 668,-137.5 719,-137.5 719,-114.5 668,-114.5"/>
<text text-anchor="start" x="685.5" y="-122.3" font-family="arial" font-size="14.00">20</text>
<polygon fill="none" stroke="black" points="719,-114.5 719,-137.5 800,-137.5 800,-114.5 719,-114.5"/>
<text text-anchor="start" x="745.5" y="-122.3" font-family="arial" font-size="14.00">DTR</text>
<polygon fill="none" stroke="black" points="668,-91.5 668,-114.5 719,-114.5 719,-91.5 668,-91.5"/>
<text text-anchor="start" x="685.5" y="-99.3" font-family="arial" font-size="14.00">21</text>
<polygon fill="none" stroke="black" points="719,-91.5 719,-114.5 800,-114.5 800,-91.5 719,-91.5"/>
<text text-anchor="start" x="747" y="-99.3" font-family="arial" font-size="14.00">void</text>
<polygon fill="none" stroke="black" points="668,-68.5 668,-91.5 719,-91.5 719,-68.5 668,-68.5"/>
<text text-anchor="start" x="685.5" y="-76.3" font-family="arial" font-size="14.00">22</text>
<polygon fill="none" stroke="black" points="719,-68.5 719,-91.5 800,-91.5 800,-68.5 719,-68.5"/>
<text text-anchor="start" x="747" y="-76.3" font-family="arial" font-size="14.00">void</text>
<polygon fill="none" stroke="black" points="668,-45.5 668,-68.5 719,-68.5 719,-45.5 668,-45.5"/>
<text text-anchor="start" x="685.5" y="-53.3" font-family="arial" font-size="14.00">23</text>
<polygon fill="none" stroke="black" points="719,-45.5 719,-68.5 800,-68.5 800,-45.5 719,-45.5"/>
<text text-anchor="start" x="747" y="-53.3" font-family="arial" font-size="14.00">void</text>
<polygon fill="none" stroke="black" points="668,-22.5 668,-45.5 719,-45.5 719,-22.5 668,-22.5"/>
<text text-anchor="start" x="685.5" y="-30.3" font-family="arial" font-size="14.00">24</text>
<polygon fill="none" stroke="black" points="719,-22.5 719,-45.5 800,-45.5 800,-22.5 719,-22.5"/>
<text text-anchor="start" x="747" y="-30.3" font-family="arial" font-size="14.00">void</text>
<polygon fill="none" stroke="black" points="668,0.5 668,-22.5 719,-22.5 719,0.5 668,0.5"/>
<text text-anchor="start" x="685.5" y="-7.3" font-family="arial" font-size="14.00">25</text>
<polygon fill="none" stroke="black" points="719,0.5 719,-22.5 800,-22.5 800,0.5 719,0.5"/>
<text text-anchor="start" x="747" y="-7.3" font-family="arial" font-size="14.00">void</text>
</g>
<!-- Cable&#45;&#45;Lambda -->
<g id="edge2" class="edge">
<title>Cable:e&#45;&#45;Lambda:w</title>
<path fill="none" stroke="#000000" stroke-width="2" d="M524,-539.5C587.88,-539.5 603.87,-538.5 668,-538.5"/>
<path fill="none" stroke="#ffff00" stroke-width="2" d="M524,-541.5C588,-541.5 604,-540.5 668,-540.5"/>
<path fill="none" stroke="#000000" stroke-width="2" d="M524,-543.5C588.13,-543.5 604.12,-542.5 668,-542.5"/>
</g>
<!-- Cable&#45;&#45;Lambda -->
<g id="edge4" class="edge">
<title>Cable:e&#45;&#45;Lambda:w</title>
<path fill="none" stroke="#000000" stroke-width="2" d="M524,-514.5C588.13,-514.5 604.12,-515.5 668,-515.5"/>
<path fill="none" stroke="#00ff00" stroke-width="2" d="M524,-516.5C588,-516.5 604,-517.5 668,-517.5"/>
<path fill="none" stroke="#000000" stroke-width="2" d="M524,-518.5C587.88,-518.5 603.87,-519.5 668,-519.5"/>
</g>
<!-- Cable&#45;&#45;Lambda -->
<g id="edge6" class="edge">
<title>Cable:e&#45;&#45;Lambda:w</title>
<path fill="none" stroke="#000000" stroke-width="2" d="M524,-489.5C592.4,-491.4 595.6,-425.4 668,-423.5"/>
<path fill="none" stroke="#895956" stroke-width="2" d="M524,-491.5C594.4,-491.5 597.6,-425.5 668,-425.5"/>
<path fill="none" stroke="#000000" stroke-width="2" d="M524,-493.5C596.4,-491.6 599.6,-425.6 668,-427.5"/>
</g>
<!-- Cable&#45;&#45;Lambda -->
<g id="edge8" class="edge">
<title>Cable:e&#45;&#45;Lambda:w</title>
<path fill="none" stroke="#000000" stroke-width="2" d="M524,-464.5C686.76,-467.45 501.73,-126.45 668,-123.5"/>
<path fill="none" stroke="#0066ff" stroke-width="2" d="M524,-466.5C688.51,-466.5 503.49,-125.5 668,-125.5"/>
<path fill="none" stroke="#000000" stroke-width="2" d="M524,-468.5C690.27,-465.55 505.24,-124.55 668,-127.5"/>
</g>
<!-- Cable&#45;&#45;Lambda -->
<g id="edge10" class="edge">
<title>Cable:e&#45;&#45;Lambda:w</title>
<path fill="none" stroke="#000000" stroke-width="2" d="M524,-439.5C594.18,-441.22 601.78,-494.22 668,-492.5"/>
<path fill="none" stroke="#ff66cc" stroke-width="2" d="M524,-441.5C592.2,-441.5 599.8,-494.5 668,-494.5"/>
<path fill="none" stroke="#000000" stroke-width="2" d="M524,-443.5C590.22,-441.78 597.82,-494.78 668,-496.5"/>
</g>
<!-- Cable&#45;&#45;Lambda -->
<g id="edge13" class="edge">
<title>Cable:e&#45;&#45;Lambda:w</title>
<path fill="none" stroke="#000000" stroke-width="2" d="M524,-439.5C591.2,-440.69 604.46,-470.69 668,-469.5"/>
<path fill="none" stroke="#ff66cc" stroke-width="2" d="M524,-441.5C589.37,-441.5 602.63,-471.5 668,-471.5"/>
<path fill="none" stroke="#000000" stroke-width="2" d="M524,-443.5C587.54,-442.31 600.8,-472.31 668,-473.5"/>
</g>
<!-- Cable&#45;&#45;Lambda -->
<g id="edge14" class="edge">
<title>Cable:e&#45;&#45;Lambda:w</title>
<path fill="none" stroke="#000000" stroke-width="2" d="M524,-439.5C588.88,-439.67 604.73,-446.67 668,-446.5"/>
<path fill="none" stroke="#ff66cc" stroke-width="2" d="M524,-441.5C588.08,-441.5 603.92,-448.5 668,-448.5"/>
<path fill="none" stroke="#000000" stroke-width="2" d="M524,-443.5C587.27,-443.33 603.12,-450.33 668,-450.5"/>
</g>
<!-- Cable&#45;&#45;Lambda -->
<g id="edge15" class="edge">
<title>Cable:e&#45;&#45;Lambda:w</title>
<path fill="none" stroke="#000000" stroke-width="2" d="M524,-439.5C588.39,-440.94 599.77,-401.94 668,-400.5"/>
<path fill="none" stroke="#ff66cc" stroke-width="2" d="M524,-441.5C590.31,-441.5 601.69,-402.5 668,-402.5"/>
<path fill="none" stroke="#000000" stroke-width="2" d="M524,-443.5C592.23,-442.06 603.61,-403.06 668,-404.5"/>
</g>
</g>
</svg>
